<svg xmlns="http://www.w3.org/2000/svg" viewBox="0 0 900 620" role="img" aria-label="Campo de construção R.F. Carvalho">
<defs>
  <linearGradient id="sky" x1="0" x2="0" y1="0" y2="1"><stop offset="0" stop-color="#effdf4"/><stop offset="1" stop-color="#d9fbe8"/></linearGradient>
  <linearGradient id="ground" x1="0" x2="1"><stop offset="0" stop-color="#86efac"/><stop offset="1" stop-color="#22c55e"/></linearGradient>
  <filter id="shadow" x="-20%" y="-20%" width="140%" height="140%"><feDropShadow dx="0" dy="18" stdDeviation="18" flood-color="#052e16" flood-opacity=".18"/></filter>
</defs>
<rect width="900" height="620" rx="44" fill="url(#sky)"/>
<path d="M0 485 C165 430 305 470 440 430 C610 380 720 425 900 370 V620 H0Z" fill="url(#ground)"/>
<path d="M70 516 C220 485 360 506 515 455 C660 407 780 420 900 385" fill="none" stroke="#16a34a" stroke-width="7" stroke-linecap="round" opacity=".32"/>
<!-- house -->
<g filter="url(#shadow)" transform="translate(330 225)">
  <rect x="0" y="116" width="245" height="155" rx="10" fill="#fffdf7"/>
  <rect x="24" y="153" width="48" height="52" rx="6" fill="#d8f9e5" stroke="#14532d" stroke-width="6"/>
  <rect x="102" y="153" width="48" height="52" rx="6" fill="#d8f9e5" stroke="#14532d" stroke-width="6"/>
  <rect x="183" y="154" width="34" height="117" rx="6" fill="#9a5a26"/>
  <path d="M-34 124 L122 0 L280 124 Z" fill="#a24824"/>
  <path d="M-34 124 L122 0 L280 124" fill="none" stroke="#7c2d12" stroke-width="9" stroke-linejoin="round"/>
  <rect x="-17" y="118" width="279" height="16" rx="6" fill="#8b451f" opacity=".9"/>
</g>
<!-- crane -->
<g transform="translate(630 95)">
  <rect x="44" y="100" width="14" height="330" fill="#14532d"/>
  <rect x="22" y="88" width="58" height="18" rx="4" fill="#16a34a"/>
  <path d="M52 92 H270" stroke="#14532d" stroke-width="12" stroke-linecap="round"/>
  <path d="M52 92 L230 150" stroke="#166534" stroke-width="7" opacity=".75"/>
  <path d="M52 92 L0 146" stroke="#166534" stroke-width="7" opacity=".75"/>
  <line x1="240" y1="100" x2="240" y2="206" stroke="#14532d" stroke-width="5"/>
  <rect x="222" y="205" width="36" height="26" rx="4" fill="#f59e0b"/>
</g>
<!-- bulldozer -->
<g transform="translate(110 425)" filter="url(#shadow)">
  <rect x="42" y="54" width="185" height="48" rx="10" fill="#f59e0b"/>
  <rect x="100" y="13" width="72" height="56" rx="8" fill="#fbbf24"/>
  <rect x="116" y="26" width="34" height="25" fill="#d8f9e5" stroke="#14532d" stroke-width="5"/>
  <path d="M223 61 L306 38 L316 69 L232 100 Z" fill="#64748b"/>
  <rect x="30" y="96" width="205" height="32" rx="16" fill="#111827"/>
  <circle cx="72" cy="112" r="18" fill="#374151"/><circle cx="127" cy="112" r="18" fill="#374151"/><circle cx="183" cy="112" r="18" fill="#374151"/>
</g>
<!-- construction details -->
<g opacity=".88">
  <rect x="570" y="492" width="95" height="16" rx="8" fill="#9a5a26"/>
  <rect x="590" y="464" width="14" height="44" rx="5" fill="#9a5a26"/>
  <rect x="628" y="458" width="14" height="50" rx="5" fill="#9a5a26"/>
  <circle cx="720" cy="478" r="18" fill="#16a34a"/>
  <circle cx="758" cy="460" r="28" fill="#22c55e"/>
  <rect x="712" y="493" width="10" height="54" fill="#7c2d12"/>
  <rect x="754" y="488" width="12" height="60" fill="#7c2d12"/>
</g>
</svg>